<?xml version="1.0" encoding="utf-8"?><svg viewBox="0 0 26 26" xmlns="http://www.w3.org/2000/svg" xmlns:xlink="http://www.w3.org/1999/xlink"><style>:root>svg{display:none}:root>svg:target{display:block}</style><svg viewBox="0 0 24 24" id="buy" xmlns="http://www.w3.org/2000/svg"><path d="M5.333 6V3.6c0-.695.224-1.375.644-1.958A3.915 3.915 0 0 1 7.7.314 4.405 4.405 0 0 1 9.95.043c.762.107 1.474.41 2.05.874a4.203 4.203 0 0 1 2.05-.874 4.405 4.405 0 0 1 2.25.27 3.915 3.915 0 0 1 1.723 1.329c.42.583.644 1.263.644 1.958V6h2c.53 0 1.039.19 1.414.527.375.338.586.796.586 1.273v12.006c0 1.112-.491 2.18-1.365 2.966S19.242 24 18.007 24H6.667c-1.415 0-2.771-.506-3.772-1.406-1-.9-1.562-2.121-1.562-3.394V7.8c0-.477.211-.935.586-1.273A2.118 2.118 0 0 1 3.333 6h2Zm8.847 16.2a3.892 3.892 0 0 1-.833-2.394V7.8H3.333v11.4c0 .394.086.784.254 1.148a3 3 0 0 0 .723.973c.31.279.677.5 1.081.65.404.151.838.229 1.276.229h7.513ZM11.333 6V3.6c0-.477-.21-.935-.585-1.273A2.118 2.118 0 0 0 9.332 1.8c-.53 0-1.039.19-1.414.527A1.714 1.714 0 0 0 7.333 3.6V6h4Zm2 0h3.334V3.6c0-.37-.127-.732-.364-1.035a1.99 1.99 0 0 0-.96-.659 2.211 2.211 0 0 0-1.204-.042c-.397.097-.751.303-1.014.589.135.36.208.746.208 1.147V6Zm2.014 13.806c0 .635.28 1.244.779 1.693a2.817 2.817 0 0 0 1.88.701c.706 0 1.383-.252 1.881-.701.5-.45.78-1.058.78-1.693V7.8h-5.32v12.006Z"/></svg><svg viewBox="0 0 24 24" id="cart" xmlns="http://www.w3.org/2000/svg"><path d="M18.036 20c-1.085 0-1.965.895-1.965 2s.88 2 1.965 2S20 23.105 20 22s-.88-2-1.964-2Zm-7.072 0C9.88 20 9 20.895 9 22s.88 2 1.964 2c1.085 0 1.965-.895 1.965-2s-.88-2-1.965-2Z"/><path d="M18.036 21c-.516 0-.965.43-.965 1 0 .57.449 1 .965 1s.964-.43.964-1c0-.57-.448-1-.964-1Zm-7.072 0c-.516 0-.964.43-.964 1 0 .57.448 1 .964 1s.965-.43.965-1c0-.57-.449-1-.965-1Zm5.107 1c0-1.105.88-2 1.965-2S20 20.895 20 22s-.88 2-1.964 2c-1.085 0-1.965-.895-1.965-2ZM9 22c0-1.105.88-2 1.964-2 1.085 0 1.965.895 1.965 2s-.88 2-1.965 2S9 23.105 9 22ZM0 1a1 1 0 0 1 1-1h4.68a1 1 0 0 1 .968.744l1.29 4.873H23a1 1 0 0 1 .94 1.342l-3.745 10.298a1 1 0 0 1-.94.658H9.894a1 1 0 0 1-.967-.744L4.91 2H1a1 1 0 0 1-1-1Zm8.467 6.617 2.196 8.298h7.892l3.017-8.298H8.467Z"/></svg><svg fill="none" viewBox="0 0 18 19" id="discount" xmlns="http://www.w3.org/2000/svg"><path d="M0 4.12c0-1.075.393-1.945 1.178-2.61C1.964.837 2.993.5 4.266.5c1.292 0 2.33.333 3.115.998.786.657 1.179 1.551 1.179 2.681v.866c0 1.082-.393 1.952-1.179 2.61-.785.657-1.814.985-3.088.985-1.282 0-2.32-.328-3.115-.986C.393 6.99 0 6.095 0 4.973v-.854Zm2.6.925c0 .481.154.87.46 1.166.317.289.728.433 1.233.433.506 0 .908-.148 1.206-.445.298-.296.447-.693.447-1.19v-.89c0-.48-.15-.87-.447-1.166-.298-.297-.709-.445-1.233-.445-.496 0-.898.148-1.205.445-.307.288-.46.693-.46 1.214v.878Zm6.827 8.922c0-1.082.397-1.952 1.191-2.61.795-.665 1.824-.997 3.088-.997 1.283 0 2.317.328 3.102.986.795.649 1.192 1.547 1.192 2.693v.866c0 1.074-.388 1.944-1.165 2.609-.776.657-1.81.986-3.101.986-1.3 0-2.344-.333-3.129-.998-.786-.665-1.178-1.547-1.178-2.645v-.89Zm2.6.938c0 .44.163.817.488 1.13.325.313.731.469 1.219.469 1.101 0 1.652-.541 1.652-1.623v-.914c0-.481-.153-.866-.46-1.154-.308-.297-.714-.445-1.22-.445-.505 0-.911.148-1.218.445-.307.288-.46.685-.46 1.19v.902Zm-6.962 2.044-1.91-.914 9.63-13.683 1.91.914-9.63 13.683Z" fill="#E11C4B"/></svg><svg viewBox="0 0 25 17" id="email" xmlns="http://www.w3.org/2000/svg"><path d="M.679.884a.75.75 0 0 1 1.006-.17l.029.02a.75.75 0 0 1 .324.773l6.82 6.57m-1.04 1.08L1.759 3.321v10.583l3.037-2.92a.75.75 0 1 1 1.04 1.082L1.79 15.954a.75.75 0 0 1-1.18-.184A3.133 3.133 0 0 1 .26 14.3V1.558A.75.75 0 0 1 .68.884m7.139 8.273 2.057 1.985.003.002c.13.125.265.238.405.337.67.514 1.428.794 2.215.794.788-.001 1.548-.285 2.217-.804.137-.101.27-.218.382-.324l1.568-1.51a.752.752 0 0 0 .085-.07l6.5-6.268v10.578l-4.632-4.428a.75.75 0 1 0-1.037 1.084l5.647 5.399a.75.75 0 0 0 1.178-.186 3.06 3.06 0 0 0 .344-1.447V1.534a.75.75 0 0 0-1.27-.54l-7.266 7.005a.751.751 0 0 0-.082.069l-2.07 1.992a2.54 2.54 0 0 1-.26.22c-.443.346-.888.494-1.306.495-.417 0-.864-.147-1.31-.492a2.025 2.025 0 0 1-.27-.221l-.001-.001-2.056-1.983"/><path d="M17.522 9.438a.75.75 0 0 1 1.06-.024l5.683 5.433a.75.75 0 0 1 .147.89c-.262.5-.768 1.013-1.49 1.013H2.088c-.7 0-1.202-.483-1.472-.976a.75.75 0 0 1 .137-.901l5.56-5.348a.75.75 0 1 1 1.04 1.082L2.524 15.25h19.991l-4.97-4.752a.75.75 0 0 1-.023-1.06Z"/><path d="M2.289 1.75h3.429a.75.75 0 0 0 0-1.5H1.814c-.612 0-1.08.37-1.362.79l-.001.002-.075.112a.75.75 0 0 0 .112.944l9.386 9.044.002.002c.13.125.265.238.406.337.67.514 1.428.794 2.215.794.788-.001 1.547-.285 2.216-.804.138-.101.27-.218.383-.324l9.423-9.073a.75.75 0 0 0 .138-.9 1.43 1.43 0 0 0-.121-.185C24.255.597 23.794.25 23.21.25h-4.355a.75.75 0 0 0 0 1.5h3.836l-8.63 8.31a2.523 2.523 0 0 1-.262.22c-.442.346-.888.494-1.305.495-.417 0-.864-.147-1.31-.492a2.033 2.033 0 0 1-.27-.223h-.002L2.29 1.75ZM1.053 13.095a.75.75 0 0 1 .705.793c-.057.977.2 1.247.263 1.301a.255.255 0 0 0 .122.06.75.75 0 0 1 .043 1.5l-.04-.75.039.75H2.16a1.13 1.13 0 0 1-.123-.003 1.754 1.754 0 0 1-1-.425c-.54-.467-.85-1.275-.777-2.52a.75.75 0 0 1 .792-.706Z"/><path d="M20.105 1.68H5.373V.32h14.732v1.36Z"/></svg><svg viewBox="0 0 24 24" id="heart" xmlns="http://www.w3.org/2000/svg"><path d="M16.65 0a7.574 7.574 0 0 0-2.927.635l-.044.02-.045.025a7.344 7.344 0 0 0-1.673 1.266c-2.68-2.512-6.947-2.694-9.867.157l-.03.03-.026.03C-.523 5.06-.463 9.523 1.072 13.05l.013.028.014.029c1.808 3.627 5.184 6.709 8.26 9.242l.009.008.007.006c.197.157.538.482.93.802.394.32.838.67 1.487.805l.146.03.146-.013c.682-.064.95-.336 1.397-.642.448-.305.944-.693 1.453-1.117a42.864 42.864 0 0 0 2.727-2.487c.009-.01.023-.022.032-.03l.004-.005c1.441-1.332 2.869-2.868 4.079-4.674v-.002l.008-.01c1.919-2.799 2.85-6.571 1.74-10.288l-.02-.066-.027-.062C22.23 1.684 19.549-.032 16.65 0Zm.034 2.287c2.09-.052 3.92 1.16 4.829 3.232.84 2.9.114 5.857-1.45 8.133l-.005.005-.003.006c-1.09 1.629-2.41 3.055-3.777 4.316l-.018.017-.017.018a41.55 41.55 0 0 1-2.611 2.381c-.476.397-.933.752-1.288.993-.133.091-.26.153-.364.201a3.243 3.243 0 0 1-.392-.273c-.29-.236-.599-.537-.935-.806l-.016-.013c-2.986-2.46-6.131-5.448-7.644-8.46-1.228-2.842-1.174-6.243.56-8.241 2.36-2.272 5.863-1.778 7.61.553l.852 1.135.823-1.158a5.225 5.225 0 0 1 1.725-1.56 5.815 5.815 0 0 1 2.121-.479Z"/></svg><svg viewBox="0 0 20 24" id="home" xmlns="http://www.w3.org/2000/svg"><path d="M2.222 24h15.556c.59 0 1.154-.253 1.571-.703A2.5 2.5 0 0 0 20 21.6V10.8c0-.157-.027-.314-.082-.46a1.213 1.213 0 0 0-.24-.391l-8.89-9.6A1.07 1.07 0 0 0 10.006 0a1.07 1.07 0 0 0-.783.349l-8.889 9.6a1.208 1.208 0 0 0-.245.39A1.283 1.283 0 0 0 0 10.8v10.8a2.5 2.5 0 0 0 .65 1.697c.418.45.983.703 1.572.703Zm5.556-2.4v-6h4.444v6H7.778ZM2.222 11.292 10 2.893l7.778 8.4V21.6h-3.334v-6a2.5 2.5 0 0 0-.65-1.697 2.143 2.143 0 0 0-1.572-.703H7.778c-.59 0-1.155.253-1.572.703a2.5 2.5 0 0 0-.65 1.697v6H2.222V11.292Z"/></svg><svg viewBox="0 0 18 24" id="location" xmlns="http://www.w3.org/2000/svg"><path fill-rule="evenodd" clip-rule="evenodd" d="M9 21.337c.953-1.374 1.778-2.55 2.494-3.569 1.554-2.213 2.593-3.693 3.309-4.883.537-.893.817-1.507.975-2.042.154-.52.222-1.06.222-1.843A7 7 0 1 0 2 9c0 .782.068 1.322.222 1.843.158.535.438 1.149.975 2.042.716 1.19 1.755 2.67 3.309 4.883.716 1.02 1.54 2.195 2.494 3.57Zm-.925 2.179c-1.215-1.761-2.253-3.24-3.14-4.503C.854 13.197 0 11.981 0 9a9 9 0 1 1 18 0c0 2.982-.854 4.197-4.936 10.013a634.5 634.5 0 0 0-3.14 4.503 1.126 1.126 0 0 1-1.849 0ZM14.75 9a5.75 5.75 0 1 1-11.5 0 5.75 5.75 0 0 1 11.5 0Zm-2 0a3.75 3.75 0 1 1-7.5 0 3.75 3.75 0 0 1 7.5 0Z"/></svg><svg viewBox="0 0 18 18" id="phone" xmlns="http://www.w3.org/2000/svg"><path d="m12.543 14.372-.728-.091c-3.56-.444-5.64-2.495-6.787-4.387A11.186 11.186 0 0 1 3.7 6.58a7.146 7.146 0 0 1-.062-.32l-.004-.024-.001-.008v-.006c-.001 0-.001-.001 1.483-.22 0 0 .892 6.043 6.885 6.79l1.55-1.55a1.514 1.514 0 0 1 1.619-.332l1.889.754A1.51 1.51 0 0 1 18 13.05v3.46A1.503 1.503 0 0 1 16.422 18C3.185 17.173.514 5.96.01 1.668A1.503 1.503 0 0 1 1.511 0h3.342a1.494 1.494 0 0 1 1.384.941l.754 1.89a1.496 1.496 0 0 1-.325 1.62l-1.55 1.55-1.484.22-.11-.746L5.6 3.395l-.003-.008L4.845 1.5H1.5l-.001.002c.24 2.028.99 5.624 3.174 8.777 2.14 3.089 5.705 5.835 11.825 6.22l.001-3.438c0-.001 0-.003-.002-.004a.008.008 0 0 0-.002-.002c-.001 0 0 0 0 0l-1.875-.75a.017.017 0 0 0-.008 0 .016.016 0 0 0-.007.003l-2.063 2.064Z"/></svg><svg viewBox="0 0 26 26" id="search" xmlns="http://www.w3.org/2000/svg"><path d="M11.119 22.236c2.467 0 4.863-.826 6.806-2.346l6.11 6.11L26 24.035l-6.11-6.11a11.051 11.051 0 0 0 2.348-6.807C22.238 4.988 17.25 0 11.118 0 4.989 0 0 4.988 0 11.118s4.988 11.118 11.119 11.118Zm0-19.456c4.599 0 8.339 3.74 8.339 8.338 0 4.599-3.74 8.339-8.34 8.339-4.598 0-8.338-3.74-8.338-8.339S6.52 2.78 11.119 2.78Z"/></svg><svg fill="none" viewBox="0 0 26 26" id="search-red" xmlns="http://www.w3.org/2000/svg"><path d="M11.119 22.236c2.467 0 4.863-.826 6.806-2.346l6.11 6.11L26 24.035l-6.11-6.11a11.051 11.051 0 0 0 2.348-6.807C22.238 4.988 17.25 0 11.118 0 4.989 0 0 4.988 0 11.118s4.988 11.118 11.119 11.118Zm0-19.456c4.599 0 8.339 3.74 8.339 8.338 0 4.599-3.74 8.339-8.34 8.339-4.598 0-8.338-3.74-8.338-8.339S6.52 2.78 11.119 2.78Z" fill="#E11C4B"/></svg><svg viewBox="0 0 24 24" id="shop" xmlns="http://www.w3.org/2000/svg"><path d="M23.1 4.803V.96a.959.959 0 0 0-.96-.96H1.86A.959.959 0 0 0 .9.96v3.843a.96.96 0 0 0-.9.957v3.951a5.31 5.31 0 0 0 .432 2.112c.129.306.288.594.468.867v10.35c0 .528.429.96.96.96h20.28c.531 0 .96-.429.96-.96V12.69a5.363 5.363 0 0 0 .9-2.979V5.76a.96.96 0 0 0-.9-.957ZM3.06 2.16h17.88V4.8H3.06V2.16Zm10.86 19.683h-3.84V18.72h3.84v3.123Zm7.02 0h-5.1V17.76a.959.959 0 0 0-.96-.96H9.12a.959.959 0 0 0-.96.96v4.083h-5.1v-7.266a5.407 5.407 0 0 0 2.382.543c.732 0 1.44-.141 2.112-.423a5.485 5.485 0 0 0 1.161-.663.02.02 0 0 1 .018 0c.358.268.748.49 1.161.663.669.282 1.38.423 2.112.423.732 0 1.44-.141 2.112-.423a5.485 5.485 0 0 0 1.161-.663.02.02 0 0 1 .018 0c.358.268.748.49 1.161.663.669.282 1.38.423 2.112.423.732 0 1.44-.141 2.112-.423.09-.039.18-.078.27-.12v7.266h-.012Zm.9-12.132c0 1.794-1.47 3.249-3.279 3.249a3.286 3.286 0 0 1-2.856-1.647.48.48 0 0 0-.417-.243h-.018a.484.484 0 0 0-.417.243A3.277 3.277 0 0 1 12 12.96a3.28 3.28 0 0 1-2.85-1.641.495.495 0 0 0-.858 0 3.288 3.288 0 0 1-2.853 1.641c-1.809 0-3.279-1.455-3.279-3.249V6.975c0-.009.006-.015.015-.015h19.65c.009 0 .015.006.015.015v2.736Z"/></svg><svg viewBox="0 0 24 24" id="user" xmlns="http://www.w3.org/2000/svg"><path d="M14.161 7.09a2.16 2.16 0 0 0-2.572-2.122h-.005c-.409.073-.848.349-1.201.806-.353.457-.545 1.003-.545 1.477v1c0 .472.193 1.015.547 1.473.354.457.796.736 1.206.812a2.16 2.16 0 0 0 2.57-2.124V7.091Zm-2.976-4.372a4.446 4.446 0 0 1 5.262 4.373v1.321a4.446 4.446 0 0 1-5.264 4.373h-.003c-1.082-.2-1.984-.864-2.602-1.662-.619-.798-1.026-1.823-1.026-2.871v-1c0-1.047.403-2.073 1.02-2.874.618-.8 1.523-1.467 2.614-1.66Z"/><path d="M12 2.286c-5.365 0-9.714 4.349-9.714 9.714S6.635 21.714 12 21.714s9.714-4.349 9.714-9.714S17.365 2.286 12 2.286ZM0 12C0 5.373 5.373 0 12 0s12 5.373 12 12-5.373 12-12 12S0 18.627 0 12Z"/><path d="M12 16.447c-2.896 0-5.339 1.664-6.358 3.957a1.143 1.143 0 0 1-2.088-.929C4.95 16.33 8.23 14.161 12 14.161c3.77 0 7.048 2.17 8.446 5.314a1.143 1.143 0 1 1-2.089.929c-1.019-2.293-3.461-3.957-6.357-3.957Z"/></svg></svg>