<svg width="186" height="17" viewBox="0 0 186 17" fill="none" xmlns="http://www.w3.org/2000/svg">
<path d="M6.05113 2.84405C5.34713 2.84405 4.65047 2.94671 3.96113 3.15205C3.2718 3.34271 2.59713 3.57738 1.93713 3.85605L0.881134 1.17205C1.65847 0.834715 2.4798 0.570715 3.34513 0.380049C4.21047 0.174715 5.13447 0.0720485 6.11713 0.0720485C7.2758 0.0720485 8.30247 0.255382 9.19713 0.622048C10.1065 0.974049 10.8691 1.50205 11.4851 2.20605C12.1158 2.89538 12.5925 3.74605 12.9151 4.75805C13.2525 5.75538 13.4211 6.89205 13.4211 8.16805C13.4211 9.78138 13.1498 11.1967 12.6071 12.414C12.0645 13.6167 11.2285 14.5554 10.0991 15.23C8.98447 15.89 7.55447 16.22 5.80913 16.22C4.91447 16.22 4.10047 16.154 3.36713 16.022C2.64847 15.89 1.91513 15.6847 1.16713 15.406V12.612C2.00313 12.876 2.77313 13.0814 3.47713 13.228C4.1958 13.3747 4.90713 13.448 5.61113 13.448C6.2858 13.448 6.8798 13.3674 7.39313 13.206C7.92113 13.03 8.36113 12.7807 8.71313 12.458C9.0798 12.1207 9.3658 11.7027 9.57113 11.204C9.77647 10.6907 9.8938 10.104 9.92313 9.44405H3.10313V6.71605H9.90113C9.88647 6.10005 9.7838 5.55738 9.59313 5.08805C9.40247 4.60405 9.13847 4.20072 8.80113 3.87805C8.4638 3.54072 8.06047 3.28405 7.59113 3.10805C7.13647 2.93205 6.62313 2.84405 6.05113 2.84405Z" fill="#E11C4B"/>
<path d="M30.9893 16H27.6673V3.06405H23.8173C23.7293 3.73872 23.634 4.47205 23.5313 5.26405C23.4433 6.05605 23.3407 6.86272 23.2233 7.68405C23.1207 8.49072 23.0107 9.26072 22.8933 9.99405C22.776 10.7127 22.6587 11.3507 22.5413 11.908C22.3507 12.8174 22.094 13.5947 21.7713 14.24C21.4633 14.8854 21.0307 15.3767 20.4733 15.714C19.9307 16.0514 19.2193 16.22 18.3393 16.22C18.046 16.22 17.7673 16.198 17.5033 16.154C17.2393 16.11 16.99 16.0514 16.7553 15.978V13.25C16.946 13.3087 17.1293 13.36 17.3053 13.404C17.496 13.448 17.7013 13.47 17.9213 13.47C18.2147 13.47 18.4567 13.3747 18.6473 13.184C18.838 12.9934 19.0067 12.6707 19.1533 12.216C19.3 11.7467 19.4467 11.1014 19.5933 10.28C19.6667 9.92805 19.7547 9.42938 19.8573 8.78405C19.96 8.12405 20.0773 7.35405 20.2093 6.47405C20.356 5.57938 20.5027 4.61138 20.6493 3.57005C20.796 2.51405 20.9353 1.42138 21.0673 0.292048H30.9893V16Z" fill="#E11C4B"/>
<path d="M46.3039 16H37.2619V0.292048H46.3039V3.02005H40.5839V6.47405H45.9079V9.20205H40.5839V13.25H46.3039V16Z" fill="#E11C4B"/>
<path d="M64.6865 16H60.9025L55.2045 8.03605V16H51.8825V0.292048H55.2045V7.90405L60.8365 0.292048H64.3785L58.6585 7.83805L64.6865 16Z" fill="#E11C4B"/>
<path d="M75.0237 16H71.7017V3.06405H67.4337V0.292048H79.2917V3.06405H75.0237V16Z" fill="#E11C4B"/>
<path d="M89.0399 0.292048C91.0639 0.292048 92.538 0.732048 93.462 1.61205C94.4006 2.47738 94.8699 3.67272 94.8699 5.19805C94.8699 5.88738 94.7673 6.54738 94.562 7.17805C94.3566 7.79405 94.0119 8.35138 93.5279 8.85005C93.0586 9.33405 92.4353 9.71538 91.658 9.99405C90.8806 10.2727 89.9199 10.412 88.7759 10.412H87.3459V16H84.0239V0.292048H89.0399ZM88.864 3.02005H87.3459V7.68405H88.446C89.0766 7.68405 89.6193 7.60338 90.074 7.44205C90.5286 7.28072 90.8806 7.02405 91.13 6.67205C91.3793 6.32005 91.504 5.86538 91.504 5.30805C91.504 4.53072 91.2913 3.95872 90.866 3.59205C90.4406 3.21072 89.7733 3.02005 88.864 3.02005Z" fill="#E11C4B"/>
<path d="M114.404 8.12405C114.404 9.34138 114.25 10.4487 113.942 11.446C113.649 12.4287 113.194 13.2794 112.578 13.998C111.977 14.7167 111.2 15.2667 110.246 15.648C109.308 16.0294 108.2 16.22 106.924 16.22C105.648 16.22 104.534 16.0294 103.58 15.648C102.642 15.252 101.864 14.702 101.248 13.998C100.647 13.2794 100.192 12.4214 99.8844 11.424C99.5911 10.4267 99.4444 9.31938 99.4444 8.10205C99.4444 6.47405 99.7084 5.05872 100.236 3.85605C100.779 2.65338 101.6 1.72205 102.7 1.06205C103.815 0.387382 105.23 0.0500488 106.946 0.0500488C108.648 0.0500488 110.048 0.387382 111.148 1.06205C112.248 1.72205 113.062 2.66072 113.59 3.87805C114.133 5.08072 114.404 6.49605 114.404 8.12405ZM102.942 8.12405C102.942 9.22405 103.082 10.17 103.36 10.962C103.639 11.754 104.072 12.3627 104.658 12.788C105.245 13.2134 106 13.426 106.924 13.426C107.878 13.426 108.64 13.2134 109.212 12.788C109.799 12.3627 110.224 11.754 110.488 10.962C110.767 10.17 110.906 9.22405 110.906 8.12405C110.906 6.46672 110.598 5.16872 109.982 4.23005C109.366 3.29138 108.354 2.82205 106.946 2.82205C106.008 2.82205 105.245 3.03472 104.658 3.46005C104.072 3.88538 103.639 4.49405 103.36 5.28605C103.082 6.07805 102.942 7.02405 102.942 8.12405Z" fill="#E11C4B"/>
<path d="M126.634 2.84405C126.003 2.84405 125.439 2.96871 124.94 3.21805C124.456 3.46738 124.045 3.82672 123.708 4.29605C123.371 4.75072 123.114 5.30805 122.938 5.96805C122.777 6.62805 122.696 7.36872 122.696 8.19005C122.696 9.30472 122.828 10.258 123.092 11.05C123.371 11.8274 123.804 12.4214 124.39 12.832C124.977 13.2427 125.725 13.448 126.634 13.448C127.279 13.448 127.917 13.3747 128.548 13.228C129.193 13.0814 129.89 12.876 130.638 12.612V15.406C129.949 15.6847 129.267 15.89 128.592 16.022C127.917 16.154 127.162 16.22 126.326 16.22C124.713 16.22 123.378 15.89 122.322 15.23C121.281 14.5554 120.511 13.6167 120.012 12.414C119.513 11.1967 119.264 9.78138 119.264 8.16805C119.264 6.98005 119.425 5.89472 119.748 4.91205C120.071 3.91472 120.54 3.05672 121.156 2.33805C121.787 1.61938 122.557 1.06205 123.466 0.666049C124.39 0.270049 125.446 0.0720485 126.634 0.0720485C127.411 0.0720485 128.189 0.174715 128.966 0.380049C129.758 0.570715 130.513 0.834715 131.232 1.17205L130.154 3.87805C129.567 3.59938 128.973 3.35738 128.372 3.15205C127.785 2.94671 127.206 2.84405 126.634 2.84405Z" fill="#E11C4B"/>
<path d="M136.286 0.292048H139.278V7.88205C139.278 8.24872 139.271 8.65938 139.256 9.11405C139.241 9.56872 139.227 10.016 139.212 10.456C139.197 10.8814 139.183 11.2554 139.168 11.578C139.153 11.886 139.139 12.0987 139.124 12.216H139.19L146.45 0.292048H150.432V16H147.462V8.45405C147.462 8.05805 147.469 7.62538 147.484 7.15605C147.499 6.67205 147.513 6.21005 147.528 5.77005C147.557 5.33005 147.579 4.94872 147.594 4.62605C147.623 4.28872 147.645 4.06872 147.66 3.96605H147.572L140.29 16H136.286V0.292048Z" fill="#E11C4B"/>
<path d="M162.757 16H159.435V3.06405H155.167V0.292048H167.025V3.06405H162.757V16Z" fill="#E11C4B"/>
<path d="M171.758 0.292048H174.75V7.88205C174.75 8.24872 174.742 8.65938 174.728 9.11405C174.713 9.56872 174.698 10.016 174.684 10.456C174.669 10.8814 174.654 11.2554 174.64 11.578C174.625 11.886 174.61 12.0987 174.596 12.216H174.662L181.922 0.292048H185.904V16H182.934V8.45405C182.934 8.05805 182.941 7.62538 182.956 7.15605C182.97 6.67205 182.985 6.21005 183 5.77005C183.029 5.33005 183.051 4.94872 183.066 4.62605C183.095 4.28872 183.117 4.06872 183.132 3.96605H183.044L175.762 16H171.758V0.292048Z" fill="#E11C4B"/>
</svg>
