<svg width="24" height="24" viewBox="0 0 24 24" xmlns="http://www.w3.org/2000/svg">
<path d="M5.33325 5.99994V3.59993C5.33327 2.90498 5.55678 2.22489 5.9768 1.64176C6.39683 1.05862 6.99541 0.597355 7.7003 0.313651C8.40519 0.029947 9.18625 -0.0640731 9.9492 0.04294C10.7122 0.149953 11.4244 0.453425 11.9999 0.916724C12.5755 0.453425 13.2877 0.149953 14.0506 0.04294C14.8136 -0.0640731 15.5947 0.029947 16.2995 0.313651C17.0044 0.597355 17.603 1.05862 18.023 1.64176C18.4431 2.22489 18.6666 2.90498 18.6666 3.59993V5.99994H20.6666C21.197 5.99994 21.7057 6.18958 22.0808 6.52715C22.4559 6.86472 22.6666 7.32256 22.6666 7.79995V19.806C22.6666 20.9183 22.1756 21.9851 21.3017 22.7716C20.4278 23.5581 19.2425 24 18.0066 24H6.66659C5.2521 24 3.89554 23.4943 2.89535 22.5941C1.89515 21.6939 1.33325 20.473 1.33325 19.2V7.79995C1.33325 7.32256 1.54397 6.86472 1.91904 6.52715C2.29411 6.18958 2.80282 5.99994 3.33325 5.99994H5.33325ZM14.1799 22.2C13.636 21.4978 13.3451 20.662 13.3466 19.806V7.79995H3.33325V19.2C3.33325 19.594 3.41947 19.9841 3.58699 20.348C3.7545 20.712 4.00003 21.0427 4.30956 21.3213C4.61909 21.5999 4.98656 21.8209 5.39097 21.9716C5.79539 22.1224 6.22885 22.2 6.66659 22.2H14.1799ZM11.3333 5.99994V3.59993C11.3333 3.12254 11.1225 2.6647 10.7475 2.32714C10.3724 1.98957 9.86369 1.79993 9.33325 1.79993C8.80282 1.79993 8.29411 1.98957 7.91904 2.32714C7.54397 2.6647 7.33325 3.12254 7.33325 3.59993V5.99994H11.3333ZM13.3333 5.99994H16.6666V3.59993C16.6666 3.22941 16.5396 2.86791 16.3029 2.56477C16.0662 2.26162 15.7313 2.03161 15.3439 1.90613C14.9566 1.78064 14.5356 1.7658 14.1385 1.86363C13.7415 1.96145 13.3876 2.16718 13.1253 2.45273C13.2599 2.81273 13.3333 3.19913 13.3333 3.59993V5.99994ZM15.3466 19.806C15.3466 20.4409 15.6268 21.0498 16.1257 21.4988C16.6245 21.9478 17.3011 22.2 18.0066 22.2C18.7121 22.2 19.3886 21.9478 19.8875 21.4988C20.3863 21.0498 20.6666 20.4409 20.6666 19.806V7.79995H15.3466V19.806Z"/>
</svg>
