<svg width="24" height="24" viewBox="0 0 24 24" xmlns="http://www.w3.org/2000/svg">
<path d="M14.1612 7.09062C14.1612 5.76217 12.9729 4.71826 11.5887 4.96766L11.5842 4.96846L11.5842 4.96845C11.1751 5.04051 10.7355 5.31664 10.3828 5.77402C10.0304 6.23101 9.8382 6.77678 9.8382 7.25111V8.25186C9.8382 8.7233 10.0307 9.26623 10.3849 9.72352C10.739 10.1808 11.181 10.4599 11.5906 10.5357C12.974 10.7837 14.1612 9.74018 14.1612 8.41235V7.09062ZM11.1855 2.71778C13.9923 2.21339 16.4469 4.36013 16.4469 7.09062V8.41235C16.4469 11.1435 13.991 13.2907 11.1834 12.7848L11.1797 12.7841C10.0981 12.5856 9.19552 11.9208 8.57773 11.123C7.95945 10.3247 7.55249 9.30041 7.55249 8.25186V7.25111C7.55249 6.20544 7.95506 5.17929 8.57274 4.37826C9.18967 3.5782 10.0946 2.9106 11.1855 2.71778Z"/>
<path d="M12 2.28571C6.63495 2.28571 2.28571 6.63495 2.28571 12C2.28571 17.3651 6.63495 21.7143 12 21.7143C17.3651 21.7143 21.7143 17.3651 21.7143 12C21.7143 6.63495 17.3651 2.28571 12 2.28571ZM0 12C0 5.37258 5.37258 0 12 0C18.6274 0 24 5.37258 24 12C24 18.6274 18.6274 24 12 24C5.37258 24 0 18.6274 0 12Z"/>
<path d="M11.9997 16.4468C9.10393 16.4468 6.66143 18.1107 5.64233 20.4037C5.38598 20.9805 4.7106 21.2402 4.13382 20.9839C3.55704 20.7275 3.29727 20.0521 3.55362 19.4754C4.95142 16.3303 8.23016 14.1611 11.9997 14.1611C15.7693 14.1611 19.048 16.3303 20.4458 19.4754C20.7022 20.0521 20.4424 20.7275 19.8656 20.9839C19.2888 21.2402 18.6134 20.9805 18.3571 20.4037C17.338 18.1107 14.8955 16.4468 11.9997 16.4468Z"/>
</svg>
