<svg width="18" height="24" viewBox="0 0 18 24" xmlns="http://www.w3.org/2000/svg">
<path fill-rule="evenodd" clip-rule="evenodd" d="M9 21.3372C9.95313 19.963 10.7783 18.7877 11.4942 17.7681C13.0482 15.5547 14.0873 14.0747 14.8026 12.8853C15.34 11.9916 15.6198 11.3781 15.7784 10.8426C15.9324 10.3224 16 9.78221 16 9C16 5.13399 12.866 2 9 2C5.13399 2 2 5.13399 2 9C2 9.78221 2.06757 10.3224 2.22163 10.8426C2.38023 11.3781 2.65996 11.9916 3.19739 12.8853C3.91271 14.0747 4.95183 15.5547 6.50581 17.7681C7.22171 18.7877 8.04688 19.963 9 21.3372ZM8.07506 23.5158C6.86035 21.7548 5.82207 20.2757 4.93593 19.0133C0.853487 13.1974 0 11.9815 0 9C0 4.02942 4.02942 0 9 0C13.9706 0 18 4.02942 18 9C18 11.9815 17.1465 13.1974 13.0641 19.0133C12.1779 20.2757 11.1396 21.7548 9.92494 23.5158C9.47798 24.1614 8.52197 24.1614 8.07506 23.5158ZM14.75 9C14.75 12.1756 12.1756 14.75 9 14.75C5.82435 14.75 3.25 12.1756 3.25 9C3.25 5.82435 5.82435 3.25 9 3.25C12.1756 3.25 14.75 5.82435 14.75 9ZM12.75 9C12.75 11.0711 11.0711 12.75 9 12.75C6.92892 12.75 5.25 11.0711 5.25 9C5.25 6.92892 6.92892 5.25 9 5.25C11.0711 5.25 12.75 6.92892 12.75 9Z"/>
</svg>
