<svg width="32" height="32" viewBox="0 0 32 32" fill="none" xmlns="http://www.w3.org/2000/svg">
<path d="M27.2683 3.59558H1.13618C0.50773 3.59558 0 4.10331 0 4.73176V30.8639C0 31.4923 0.50773 32.0001 1.13618 32.0001H27.2683C27.8968 32.0001 28.4045 31.4923 28.4045 30.8639V4.73176C28.4045 4.10331 27.8968 3.59558 27.2683 3.59558ZM26.6667 30.2223H1.77778V5.33343H26.6667V30.2223Z" fill="#E11C4B"/>
<path d="M5.39335 0C4.67425 0 4.3147 0.359551 4.3147 1.07865V2.1573V3.23596H6.04454V1.77778H30.4001L30.2223 25.9556H28.8001V27.6854H30.9214C31.8203 27.6854 32.0001 27.3258 32.0001 26.2472V1.4382C32.0001 0.359551 31.7344 0.00689603 30.7417 0H5.39335Z" fill="#E11C4B"/>
</svg>
