<svg width="24" height="25" viewBox="0 0 24 25" fill="none" xmlns="http://www.w3.org/2000/svg">
<path d="M22.0617 6.98086C21.9422 6.53564 21.7078 6.12962 21.382 5.80344C21.0563 5.47727 20.6505 5.24237 20.2055 5.12227C18.5672 4.68164 12 4.68164 12 4.68164C12 4.68164 5.43281 4.68164 3.79453 5.11992C3.34927 5.23964 2.94334 5.4744 2.61751 5.80064C2.29169 6.12688 2.05744 6.5331 1.93828 6.97852C1.5 8.61914 1.5 12.041 1.5 12.041C1.5 12.041 1.5 15.4629 1.93828 17.1012C2.17969 18.0059 2.89219 18.7184 3.79453 18.9598C5.43281 19.4004 12 19.4004 12 19.4004C12 19.4004 18.5672 19.4004 20.2055 18.9598C21.1102 18.7184 21.8203 18.0059 22.0617 17.1012C22.5 15.4629 22.5 12.041 22.5 12.041C22.5 12.041 22.5 8.61914 22.0617 6.98086ZM9.91406 15.1816V8.90039L15.3516 12.0176L9.91406 15.1816Z" fill="#8D8D8D"/>
</svg>
