<svg width="25" height="17" viewBox="0 0 25 17" xmlns="http://www.w3.org/2000/svg">
  <path d="M0.678731 0.884268C0.915617 0.575314 1.35453 0.49724 1.68514 0.714351L1.71369 0.733094C1.97685 0.905909 2.09566 1.216 2.03769 1.50689L8.85819 8.07716C8.85831 8.07728 8.85806 8.07704 8.85819 8.07716M7.81756 9.15748L1.75921 3.3214V13.9041L4.79563 10.9843C5.09419 10.6972 5.56898 10.7064 5.85608 11.005C6.14319 11.3036 6.1339 11.7784 5.83533 12.0655L1.79147 15.9541C1.62261 16.1165 1.38758 16.1906 1.15611 16.1545C0.924641 16.1184 0.723326 15.9763 0.611897 15.7702C0.386068 15.3526 0.259214 14.834 0.259214 14.2985V1.55754C0.259214 1.27036 0.423015 1.00971 0.678731 0.884268M7.81756 9.15748L9.87539 11.1424L9.87753 11.1444C10.0075 11.2688 10.1426 11.3818 10.2833 11.481C10.953 11.9946 11.7114 12.2755 12.4978 12.2747C13.2862 12.274 14.0456 11.99 14.7148 11.4706C14.8525 11.3695 14.985 11.253 15.0971 11.1466L16.6647 9.63736C16.6946 9.61606 16.7232 9.59229 16.7504 9.56606L23.2499 3.29863V13.8769L18.6176 9.44864C18.3182 9.16241 17.8435 9.1731 17.5572 9.47251C17.271 9.77192 17.2817 10.2467 17.5811 10.5329L23.2284 15.9316C23.3975 16.0932 23.6322 16.1667 23.8633 16.1303C24.0943 16.094 24.2952 15.9519 24.4064 15.7462C24.635 15.3235 24.7499 14.8179 24.7499 14.2985V1.53351C24.7499 1.23264 24.5701 0.96089 24.2932 0.843233C24.0163 0.725575 23.6959 0.784782 23.4793 0.993627L16.2144 7.99914C16.1858 8.01975 16.1584 8.04262 16.1323 8.06777L14.0627 10.0603C13.9758 10.1427 13.892 10.2143 13.8224 10.2649C13.8154 10.27 13.8084 10.2752 13.8016 10.2806C13.359 10.6261 12.9136 10.7743 12.4963 10.7747C12.0788 10.7752 11.6317 10.6277 11.1863 10.2832C11.1764 10.2755 11.1663 10.2681 11.156 10.2609C11.0817 10.2092 11.0014 10.1437 10.9157 10.0618C10.9154 10.0614 10.915 10.0611 10.9146 10.0607L8.85892 8.07786" />
  <path d="M17.5216 9.43805C17.8078 9.13863 18.2826 9.12794 18.582 9.41416L24.2652 14.847C24.5067 15.0777 24.5664 15.4404 24.4117 15.7364C24.1498 16.2378 23.6441 16.7495 22.9229 16.7495H2.08677C1.3869 16.7495 0.885203 16.267 0.614531 15.7742C0.451376 15.4771 0.507747 15.1075 0.752047 14.8725L6.31235 9.52529C6.6109 9.23817 7.08569 9.24745 7.3728 9.54601C7.65992 9.84456 7.65065 10.3193 7.35209 10.6065L2.52409 15.2495H22.5155L17.5455 10.4984C17.2461 10.2122 17.2354 9.73746 17.5216 9.43805Z" />
  <path d="M2.28883 1.75H5.7175C6.13171 1.75 6.4675 1.41421 6.4675 1C6.4675 0.585786 6.13171 0.25 5.7175 0.25H1.81359C1.20205 0.25 0.734846 0.619783 0.451659 1.04045C0.451283 1.041 0.450903 1.04155 0.450521 1.04211C0.429654 1.0726 0.400806 1.11476 0.375845 1.15385C0.183582 1.45492 0.230351 1.84982 0.487624 2.09765L9.87413 11.1424L9.87627 11.1444C10.0063 11.2688 10.1414 11.3818 10.282 11.481C10.9518 11.9945 11.7101 12.2755 12.4966 12.2747C13.285 12.2739 14.0444 11.99 14.7135 11.4706C14.8513 11.3695 14.9838 11.2529 15.0958 11.1466L24.5188 2.07374C24.7626 1.83904 24.819 1.47019 24.6565 1.17337C24.6192 1.10526 24.5771 1.04275 24.5357 0.989037C24.2547 0.597384 23.7938 0.25 23.2114 0.25H18.8563C18.4421 0.25 18.1063 0.585786 18.1063 1C18.1063 1.41421 18.4421 1.75 18.8563 1.75H22.6924L14.0614 10.0603C13.9745 10.1427 13.8908 10.2143 13.8212 10.2648C13.8141 10.27 13.8072 10.2752 13.8003 10.2806C13.3578 10.6261 12.9123 10.7743 12.4951 10.7747C12.0776 10.7751 11.6305 10.6276 11.1851 10.2832C11.1751 10.2755 11.165 10.2681 11.1547 10.2609C11.0804 10.2092 11.0003 10.1427 10.9146 10.0607C10.9143 10.0604 10.9137 10.061 10.9134 10.0607L2.28883 1.75ZM1.05306 13.0955C1.46657 13.1197 1.78221 13.4745 1.75806 13.888C1.70098 14.8653 1.9589 15.1354 2.02104 15.1894C2.06406 15.2267 2.10357 15.2409 2.12792 15.2468C2.13429 15.2484 2.1393 15.2493 2.14256 15.2498C2.54053 15.2474 2.87405 15.5584 2.89538 15.96C2.91735 16.3736 2.59984 16.7268 2.18621 16.7487L2.14644 15.9998C2.18621 16.7487 2.18557 16.7488 2.18492 16.7488L2.18083 16.749L2.17491 16.7492L2.16144 16.7497C2.15176 16.7499 2.14064 16.7501 2.1282 16.75C2.10334 16.7499 2.07295 16.7489 2.03784 16.7464C1.96792 16.7413 1.87726 16.7296 1.77309 16.7043C1.56396 16.6534 1.29485 16.5454 1.03737 16.3218C0.498498 15.8537 0.187868 15.046 0.26061 13.8005C0.284761 13.387 0.639555 13.0714 1.05306 13.0955Z" />
  <path d="M20.1052 1.67925H5.37347V0.320755H20.1052V1.67925Z" />
</svg>